<svg width="110" height="110" xmlns="http://www.w3.org/2000/svg">
 <g>
  <title>background</title>
  <rect x="-1" y="-1" width="112" height="112" id="canvas_background" fill="none"/>
 </g>

 <g>
  <title>Layer 1</title>
  <g id="svg_2">
   <circle id="Oval" fill="#645A73" cx="56" cy="56" r="50"/>
   <path d="m60.31407,107c-0.35702,0 -0.69925,-0.14283 -0.95066,-0.3968c-0.25142,-0.25397 -0.39119,-0.59802 -0.38827,-0.95572l0.03165,-3.97705c0,-1.02445 0.09737,-3.36604 0.18744,-5.10272c0.46011,-8.56878 0.36517,-19.48891 -0.22761,-25.40265c-0.37977,-3.87095 -1.03341,-7.62238 -1.28903,-8.26266l-0.0073,-0.01708c-0.14499,-0.37332 -0.13091,-0.78986 0.03895,-1.1525c0.33717,-0.72321 1.04193,-0.96591 2.58778,-1.49765c2.6876,-0.93663 4.44525,-1.89766 4.89196,-2.26354c-0.00901,-0.08156 -0.03649,-0.15998 -0.08033,-0.22928c-0.15989,-0.27382 -0.43802,-0.45734 -0.75224,-0.49637c-0.44194,0.12918 -0.8733,0.29227 -1.29024,0.48783c-3.6151,1.66351 -10.68951,3.57337 -14.84993,4.00755c-1.0816,0.10665 -2.16801,0.15672 -3.25481,0.15c-2.49041,0 -5.17922,-0.2183 -7.19005,-0.58296c-1.78077,-0.32318 -4.80188,-1.46349 -7.34463,-2.78186c-3.15256,-1.64034 -5.13174,-3.91973 -5.72696,-6.59549c-0.32377,-1.44399 -0.24344,-4.1295 0.16433,-5.74545c0.43211,-1.70741 1.59089,-4.10267 2.69489,-5.55519c2.28105,-3.0087 5.73914,-5.84057 10.00301,-8.20168c4.27244,-2.35346 8.88702,-4.02058 13.67533,-4.94052c1.67123,-0.31343 3.76117,-0.48821 5.88642,-0.48821c1.65211,-0.00742 3.30259,0.1059 4.93821,0.33942c3.64553,0.54881 6.81636,1.56228 9.9811,3.1892c2.06073,1.06592 3.1124,1.85255 5.36423,4.0112c3.34367,3.20628 5.40197,6.00644 7.33976,9.98715c2.79349,5.72593 3.86829,10.68475 5.22425,24.11843c0.62687,6.12962 1.36571,18.15102 1.5276,22.33053c0.00525,0.13101 -0.00869,0.26208 -0.04138,0.38904c-0.29335,1.12934 -1.19652,1.42082 -1.63106,1.56107c-0.48689,0.15488 -1.07967,0.3488 -1.94753,2.07328c-0.05623,0.11235 -0.12794,0.21621 -0.21302,0.30856c-1.8185,1.97084 -2.36503,2.29769 -3.42887,2.46843c-0.29091,0.04634 -0.59034,0.09391 -1.27076,0.42441c-1.20382,0.58296 -1.97797,1.21959 -2.79958,1.90377c-1.3012,1.07811 -2.64621,2.19525 -5.45796,2.88553c-2.03517,0.50003 -3.15378,1.08786 -4.2371,1.65619c-1.52394,0.79882 -2.9639,1.55496 -6.14568,1.58545l-3.75874,0.73175c-0.083,0.02043 -0.16779,0.03269 -0.25317,0.03659l0,0z" id="Path" fill="#FFFFFF"/>
   <path d="m34.31341,35.68254c-1.64611,0.6959 -1.77302,2.87848 -0.22147,3.64981c1.11979,0.55842 2.26323,0.29442 2.84926,-0.66548c0.50557,-0.7646 0.43554,-1.7635 -0.17201,-2.45349c-0.60756,-0.68999 -1.60739,-0.90611 -2.45578,-0.53084l0,0zm10.73512,1.49034c-0.70864,0.43427 -1.13893,1.1945 -1.13893,2.01226c0,0.81776 0.43029,1.57799 1.13893,2.01226c1.50427,0.88326 3.45147,-0.2786 3.45147,-2.04267c-0.00249,-1.70811 -1.99324,-2.85416 -3.45147,-1.98185z" id="Shape" fill="#4C261D"/>
   <path fill="#FFFFFF" stroke-width="null" stroke-opacity="null" fill-opacity="null" d="m67.22574,19.76943c1.99781,0 3.8762,0.73033 5.28726,2.05524c1.4143,1.3255 2.19187,3.09164 2.19187,4.97111l3.0798,0c0,-5.45962 -4.7375,-9.9004 -10.55957,-9.9004l0,2.87405l0.00064,0zm0.0039,-5.09596c7.12215,0 12.91501,5.43961 12.91501,12.12534l3.0785,0c0,-8.27064 -7.17472,-15 -15.99416,-15l0,2.87466l0.00065,0zm4.25784,10.11616c0,1.10005 -0.95477,1.99221 -2.13217,1.99221s-2.13216,-0.89216 -2.13216,-1.99221c0,-1.09883 0.95477,-1.99099 2.13216,-1.99099s2.13217,0.89155 2.13217,1.99099z" id="svg_1" stroke="null" transform="rotate(-15 75.22315216064453,19.29880905151367) "/>
   <path id="svg_6" d="m49.874992,81.680436c0.011749,-0.12806 0.018551,-0.257433 0.018551,-0.388119c0,-2.266984 -1.730164,-4.104475 -3.864734,-4.104475c-1.65658,0 -3.065816,1.109193 -3.615536,2.66561c-0.364213,-0.424239 -0.883633,-0.695462 -1.466744,-0.695462c-1.09944,0 -1.990493,0.946328 -1.990493,2.113969c0,0.13791 0.014222,0.272537 0.038338,0.402567c-1.466744,0.256776 -2.589063,1.59976 -2.589063,3.229729c0,1.813849 1.384502,3.28358 3.091787,3.28358l9.816425,0c1.707903,0 3.091787,-1.46973 3.091787,-3.28358c0.000618,-1.609611 -1.091401,-2.942744 -2.530319,-3.223819z" stroke-width="null" fill="#FFFFFF"/>
   <path id="svg_7" d="m33.874992,70.680436c0.011749,-0.12806 0.018551,-0.257433 0.018551,-0.388119c0,-2.266984 -1.730164,-4.104475 -3.864734,-4.104475c-1.65658,0 -3.065816,1.109193 -3.615536,2.66561c-0.364213,-0.424238 -0.883633,-0.695462 -1.466744,-0.695462c-1.09944,0 -1.990493,0.946328 -1.990493,2.113968c0,0.137911 0.014223,0.272538 0.038339,0.402567c-1.466744,0.256776 -2.589063,1.59976 -2.589063,3.229729c0,1.81385 1.384502,3.28358 3.091787,3.28358l9.816425,0c1.707903,0 3.091787,-1.46973 3.091787,-3.28358c0.000618,-1.60961 -1.091401,-2.942744 -2.530319,-3.223818z" stroke-width="null" fill="#FFFFFF"/>
  </g>
 </g>
</svg>